<svg id="Laag_1" data-name="Laag 1" xmlns="http://www.w3.org/2000/svg" viewBox="0 0 452 442"><title>Tekengebied 1dibiticon</title><path id="_Samengesteld_pad_" data-name="&lt;Samengesteld pad&gt;" d="M243,46.69A169.72,169.72,0,0,0,67.73,195.12l0-.12v.42a171.14,171.14,0,0,0-1.32,20.85V366l41.31-38.74,0-.11a169.69,169.69,0,0,0,298-118.91C401.59,120.87,330.38,50.16,243,46.69Zm-.82,263.17a93.79,93.79,0,0,1-99.67-99.67c2.95-46.67,40.82-84.54,87.49-87.49a93.79,93.79,0,0,1,99.67,99.67C326.72,269,288.85,306.9,242.18,309.85Z"/></svg>